<svg version="1.1" id="Layer_1" xmlns="http://www.w3.org/2000/svg" xmlns:xlink="http://www.w3.org/1999/xlink" x="0px" y="0px"
	 width="100%" viewBox="150 440 800 200" enable-background="new 0 0 1080 1080" xml:space="preserve">
<path fill="none" opacity="1.000000" stroke="none" 
	d="
M978.000000,1081.000000 
	C652.000000,1081.000000 326.500000,1081.000000 1.000000,1081.000000 
	C1.000000,721.000000 1.000000,361.000000 1.000000,1.000000 
	C361.000000,1.000000 721.000000,1.000000 1081.000000,1.000000 
	C1081.000000,361.000000 1081.000000,721.000000 1081.000000,1081.000000 
	C1046.833374,1081.000000 1012.666687,1081.000000 978.000000,1081.000000 
M737.467346,572.894897 
	C737.636292,572.879211 737.805237,572.863464 738.724243,572.991577 
	C739.483765,572.947327 740.243286,572.903015 741.931396,572.989014 
	C748.229675,572.989014 754.527954,572.989014 760.077576,572.989014 
	C759.062500,570.273438 757.790894,568.329346 757.690063,566.326355 
	C757.397400,560.513000 757.380737,554.667053 757.648376,548.851990 
	C757.782837,545.930542 758.288086,542.815979 759.537354,540.228882 
	C760.390808,538.461670 762.819946,537.455322 764.544678,536.108765 
	C765.341064,537.942505 766.762085,539.754944 766.825562,541.613831 
	C767.098267,549.597351 767.110168,557.598083 766.904114,565.584473 
	C766.844666,567.890869 765.740173,570.170227 765.077332,572.599365 
	C771.920715,572.599365 779.804565,572.599365 787.688354,572.599365 
	C782.376709,571.531372 783.371216,567.529785 783.345154,564.049927 
	C783.292847,557.058289 783.439392,550.055542 783.089233,543.078247 
	C782.737427,536.067322 779.174011,532.512268 772.324402,531.553284 
	C766.918335,530.796387 762.150696,532.115417 758.908081,535.638794 
	C757.310974,534.322449 756.041443,532.377441 754.673828,532.305847 
	C749.038940,532.010925 743.373901,532.268982 737.721619,532.395264 
	C737.435181,532.401611 737.163513,533.074219 736.662109,533.726624 
	C738.297302,534.049622 739.660645,534.318909 741.132996,534.609680 
	C741.132996,546.919312 741.132996,558.889648 740.307617,570.945007 
	C737.202271,570.945007 734.096863,570.945007 730.308533,570.945007 
	C730.308533,557.481506 730.308533,544.961182 730.308533,532.766602 
	C723.091614,532.766602 716.570740,532.766602 710.049805,532.766602 
	C714.538330,533.335510 714.388306,536.348938 714.351135,539.519226 
	C714.263489,546.998535 714.403259,554.480408 714.315918,561.959717 
	C714.269043,565.980286 716.107849,570.815430 708.354065,572.589966 
	C719.208984,572.589966 728.134338,572.589966 737.467346,572.894897 
M232.549149,566.886169 
	C239.814240,565.905640 243.236282,558.607056 249.788055,556.287109 
	C250.772110,555.938721 251.177963,553.028015 251.268875,551.272522 
	C251.484009,547.118652 251.408844,542.945618 251.338806,538.782288 
	C251.264313,534.353149 249.035599,531.732544 244.641266,530.729919 
	C243.191727,530.399231 241.245026,529.579590 240.696609,528.426575 
	C238.249222,523.281128 233.911423,523.467224 229.581757,524.288086 
	C225.040863,525.148926 224.351868,528.954895 224.415710,532.815674 
	C224.465744,535.841064 223.112656,536.914062 220.194870,536.890869 
	C210.033127,536.810059 199.870071,536.818115 189.708130,536.885498 
	C186.855652,536.904480 185.331955,535.914673 185.378326,532.860413 
	C185.437607,528.954712 184.561691,525.202576 180.185471,524.286072 
	C175.859955,523.380188 171.534073,523.392151 169.035980,528.431396 
	C168.463333,529.586548 166.531021,530.307434 165.078949,530.742310 
	C160.570724,532.092468 157.896683,534.716187 157.960663,539.661743 
	C158.008057,543.326294 157.896591,546.993774 157.989899,550.656616 
	C158.122330,555.854980 160.420761,558.411194 165.520828,559.671326 
	C166.809250,559.989563 168.551712,560.708496 169.019180,561.730896 
	C171.267181,566.647461 175.254471,567.640442 179.819031,566.547546 
	C184.247726,565.487183 185.600220,561.880859 185.374420,557.649780 
	C185.210739,554.582947 186.676147,553.599365 189.580276,553.624451 
	C199.741928,553.712219 209.905960,553.740662 220.066605,553.604980 
	C223.292114,553.562012 224.558243,554.709656 224.438171,557.952881 
	C224.250870,563.012146 226.619156,566.181274 232.549149,566.886169 
M793.938171,536.476746 
	C788.173401,545.140320 788.717468,554.600281 791.366333,563.869263 
	C793.497375,571.326599 800.165894,574.993103 807.779907,573.632690 
	C810.750549,573.101990 813.497009,571.316833 816.389404,570.084412 
	C818.193604,573.279968 829.076233,574.520630 837.669250,571.813477 
	C832.251709,571.103943 832.627686,567.756714 832.666565,564.286987 
	C832.787720,553.465149 832.692871,542.640930 832.686523,531.817627 
	C832.682190,524.358032 832.685730,516.898376 832.685730,509.017181 
	C825.207092,508.872253 818.266663,508.707947 811.354858,509.077271 
	C811.370728,509.643646 811.386597,510.210022 811.402466,510.776367 
	C812.843018,510.947266 814.283569,511.118134 815.925537,511.312927 
	C815.925537,518.753540 815.925537,526.018066 815.925537,533.434326 
	C808.208374,530.534363 800.907043,529.917664 793.938171,536.476746 
M362.472687,554.213074 
	C362.847290,554.714294 363.221924,555.215576 363.596558,555.716797 
	C364.065125,555.053467 364.924835,554.398987 364.940063,553.725403 
	C365.056854,548.567932 365.009857,543.406677 365.012634,538.246643 
	C365.013947,535.779053 365.012878,533.311523 365.012878,530.843933 
	C364.542633,530.731873 364.072388,530.619812 363.602112,530.507751 
	C361.012512,536.123596 358.883087,542.321411 350.575928,541.309143 
	C350.575928,532.968323 350.575928,524.772522 350.575928,516.285339 
	C355.773926,515.672485 360.723969,515.926514 364.301575,519.604370 
	C367.481201,522.873047 369.772369,527.005981 372.455719,530.757446 
	C372.773438,530.643311 373.091156,530.529175 373.408875,530.415039 
	C373.151886,524.926636 372.894897,519.438232 372.643951,514.078491 
	C361.915314,512.387695 330.535492,513.280884 328.017853,515.462097 
	C329.742340,515.855530 331.259216,516.201538 332.914490,516.579163 
	C332.914490,534.710815 332.914490,552.620300 332.914490,570.534729 
	C331.158173,570.871338 329.661896,571.158081 328.165588,571.444824 
	C328.194977,571.820923 328.224335,572.197083 328.253723,572.573181 
	C343.754089,572.573181 359.254456,572.573181 375.281860,572.573181 
	C375.281860,566.634705 375.281860,560.689087 375.281860,554.743408 
	C374.942169,554.496460 374.602448,554.249573 374.262756,554.002686 
	C369.866272,564.717468 363.074646,571.768616 350.573669,570.678955 
	C350.573669,561.864502 350.573669,553.321228 350.573669,544.797180 
	C357.288361,544.484802 359.025909,545.825439 362.472687,554.213074 
M682.514465,523.525513 
	C682.514465,521.084290 682.514465,518.643066 682.514465,516.300598 
	C692.669189,514.966736 697.479736,517.654846 701.860840,526.564453 
	C702.666504,528.202759 703.666870,529.745239 704.577332,531.332031 
	C705.049988,531.109192 705.522644,530.886414 705.995300,530.663635 
	C705.610657,524.930908 705.226013,519.198181 704.864746,513.813965 
	C689.880859,513.813965 675.348206,513.813965 660.815552,513.813965 
	C660.784546,514.167725 660.753479,514.521484 660.722473,514.875244 
	C662.156433,515.371033 663.590393,515.866760 664.969116,516.343384 
	C664.969116,534.512512 664.969116,552.445618 664.969116,570.279419 
	C663.311340,570.821899 661.965210,571.262451 660.619080,571.702942 
	C660.711182,571.933105 660.803223,572.163330 660.895325,572.393494 
	C671.538330,572.393494 682.181335,572.393494 692.824341,572.393494 
	C692.837341,571.982971 692.850342,571.572449 692.863342,571.161987 
	C689.670959,570.964783 686.478638,570.767578 682.937317,570.548828 
	C682.937317,562.192627 682.937317,553.955750 682.937317,545.559387 
	C692.122192,544.010254 694.349426,550.791443 697.465942,556.707825 
	C697.465942,548.457458 697.465942,540.207153 697.465942,531.956787 
	C695.842224,533.235107 695.637573,535.049072 694.632263,536.088867 
	C692.436218,538.360229 690.090759,540.753235 687.325928,542.135925 
	C684.406982,543.595642 682.311340,542.445496 682.499878,538.513000 
	C682.723022,533.858093 682.530090,529.183105 682.514465,523.525513 
M428.058350,572.875000 
	C428.193024,572.777100 428.347626,572.697021 428.456207,572.575806 
	C428.545410,572.476135 428.642639,572.222961 428.629791,572.215271 
	C426.814789,571.125305 424.392670,570.475769 423.274048,568.900269 
	C419.427887,563.483154 416.001007,557.764954 412.512238,552.101135 
	C411.975616,551.229919 411.376923,549.561462 411.782867,549.073303 
	C416.268738,543.679321 418.165497,535.941284 426.683289,533.028076 
	C421.687775,533.028076 417.601349,533.028076 413.514893,533.028076 
	C413.482788,533.316406 413.450653,533.604797 413.418518,533.893127 
	C414.884247,534.259094 416.349976,534.625061 418.337830,535.121338 
	C415.273193,539.348633 412.506409,543.165100 409.444763,547.388306 
	C406.825928,543.013184 404.550385,539.211670 402.078217,535.081665 
	C403.418610,534.789185 404.217010,534.659973 404.986847,534.433655 
	C405.660797,534.235474 406.302673,533.928162 406.958740,533.669128 
	C406.914764,533.455688 406.870789,533.242249 406.826813,533.028809 
	C397.376404,533.028809 387.926025,533.028809 378.475616,533.028809 
	C384.082794,533.256165 385.104370,538.122437 387.378265,541.552734 
	C389.675049,545.017517 391.964874,548.496277 394.031921,552.098450 
	C394.675110,553.219299 395.279663,555.385132 394.717438,556.014404 
	C389.849365,561.463074 389.595612,571.135620 380.042511,572.629761 
	C384.349182,572.629761 388.655853,572.629761 392.962524,572.629761 
	C392.990845,572.321838 393.019135,572.013855 393.047455,571.705933 
	C391.714386,571.372253 390.381317,571.038574 388.615387,570.596497 
	C391.460602,566.106689 394.170258,561.830688 397.215729,557.024902 
	C400.210938,561.979065 402.753326,566.184326 405.371582,570.515015 
	C403.340668,571.074890 401.806305,571.497925 400.271942,571.920898 
	C400.335663,572.285645 400.399384,572.650391 400.463074,573.015137 
	C409.403748,573.015137 418.344391,573.015137 428.058350,572.875000 
M427.700562,559.763489 
	C431.164795,571.165649 441.796204,576.545715 454.831421,573.493042 
	C462.656158,571.660706 467.334259,566.536011 466.205719,559.985840 
	C462.513702,567.355347 458.308502,573.452454 449.325531,569.866394 
	C444.543274,567.957275 442.684814,560.469238 444.483154,551.455872 
	C450.805603,551.455872 457.262177,551.598999 463.702240,551.336243 
	C465.006409,551.282959 467.303528,549.743835 467.345856,548.808411 
	C467.605682,543.064880 465.945374,537.842834 460.892517,534.492065 
	C449.065521,526.648987 430.665985,533.518127 427.500641,547.162598 
	C426.629089,550.919434 427.394775,555.056030 427.700562,559.763489 
M655.416870,540.266052 
	C650.391846,531.758362 637.493469,528.788696 627.117737,533.750610 
	C617.806274,538.203613 613.681152,550.244751 617.629456,561.447021 
	C621.065552,571.195862 632.861938,576.330811 644.693542,573.227905 
	C652.603149,571.153564 656.905151,566.248718 655.765930,559.582397 
	C652.090149,566.914551 648.082703,573.345459 638.930176,569.761353 
	C634.215393,567.915161 632.002136,559.314758 633.780151,551.114685 
	C641.331787,551.114685 648.965942,551.114685 657.349121,551.114685 
	C656.755005,547.430847 656.234924,544.206604 655.416870,540.266052 
M849.930298,571.621765 
	C857.387329,574.493774 864.859314,574.936584 872.164978,571.289917 
	C876.955750,568.898621 879.551086,564.018616 878.269104,559.412354 
	C874.904297,567.046143 870.538818,572.924377 861.551208,569.587097 
	C856.708313,567.788940 854.726746,559.218384 856.774536,550.801697 
	C864.216125,550.801697 871.794922,550.801697 879.295776,550.801697 
	C880.581726,538.429260 874.985779,532.112244 862.546509,531.313782 
	C851.356812,530.595520 842.857422,535.753784 840.154907,544.903015 
	C836.811707,556.221436 840.226440,566.124146 849.930298,571.621765 
M489.702148,532.597595 
	C483.290985,532.597595 476.879852,532.597595 470.884674,532.597595 
	C472.433350,534.610168 474.452454,536.017822 474.488129,537.474182 
	C474.756592,548.427612 474.634491,559.390625 474.634491,570.217224 
	C472.963531,570.964661 471.627014,571.562500 469.583649,572.476501 
	C479.228912,572.476501 487.918304,572.476501 496.607666,572.476501 
	C496.612488,572.178040 496.617310,571.879639 496.622131,571.581177 
	C494.896088,571.309998 493.170074,571.038818 491.283569,570.742432 
	C491.283569,562.213562 490.757233,553.709229 491.547058,545.328918 
	C491.855652,542.054382 495.039276,539.000183 497.150146,536.012817 
	C497.402679,535.655457 499.147186,536.352173 500.200195,536.560303 
	C499.870270,537.360474 499.694305,538.732849 499.185883,538.869629 
	C495.396393,539.889221 496.398621,542.956604 497.138123,544.914368 
	C497.763611,546.570251 499.859161,548.276428 501.636658,548.775085 
	C506.470459,550.131165 510.118164,547.676697 510.969604,543.130005 
	C512.040710,537.410095 509.516724,532.196167 504.587616,532.138306 
	C500.153168,532.086426 495.696289,533.949890 491.058350,535.012207 
	C491.074768,535.071533 490.778534,534.000671 489.702148,532.597595 
M904.293396,541.450867 
	C905.938904,539.442322 907.464661,537.309570 909.320679,535.519165 
	C909.744202,535.110657 911.308167,535.884338 912.347229,536.113953 
	C912.026611,536.933594 911.933289,538.006226 911.348389,538.531860 
	C907.512817,541.978821 908.186218,546.436157 912.914185,548.281128 
	C917.024292,549.885010 921.328125,548.099792 922.795898,544.182190 
	C924.746948,538.974792 922.469482,532.368774 917.744934,531.998474 
	C913.169617,531.639954 908.442078,533.222595 903.232239,534.038696 
	C901.969482,531.735352 888.222473,530.365417 882.186340,533.470581 
	C883.850891,533.899353 885.192383,534.244873 886.691040,534.630920 
	C886.691040,546.499939 886.691040,558.267639 886.691040,570.020386 
	C885.192566,570.642700 883.849426,571.200562 882.506287,571.758423 
	C882.579712,572.009949 882.653137,572.261536 882.726562,572.513062 
	C891.422424,572.513062 900.118225,572.513062 908.814087,572.513062 
	C908.860718,572.172180 908.907349,571.831299 908.953979,571.490479 
	C907.182434,571.075562 905.410889,570.660706 902.785278,570.045898 
	C903.209045,560.798218 903.632935,551.548279 904.293396,541.450867 
M539.353333,573.045166 
	C546.524475,570.671021 549.457397,567.166260 549.704834,559.940002 
	C548.590942,561.114929 547.834534,562.508789 547.097961,563.913025 
	C544.555603,568.759521 539.864075,571.270752 535.266296,570.269287 
	C530.002991,569.122803 529.312012,564.809204 529.086182,560.650757 
	C528.770874,554.845764 528.717896,548.982178 529.198975,543.197388 
	C529.432983,540.383118 530.690613,537.361023 532.376953,535.097656 
	C533.099304,534.128113 536.094849,534.852112 538.057556,534.806641 
	C538.090576,536.466797 538.573486,539.414734 538.085999,539.585083 
	C533.883301,541.053345 534.976685,544.402649 536.185669,546.471252 
	C537.327209,548.424377 539.989075,550.068115 542.281616,550.632996 
	C545.689148,551.472534 548.442505,549.548584 549.815002,546.270996 
	C551.478882,542.297546 549.926025,537.222595 546.464600,534.607361 
	C538.096497,528.284973 520.186096,531.898193 514.831970,540.988892 
	C510.450653,548.427795 510.663971,560.791016 515.816528,567.064697 
	C521.805481,574.356689 529.912292,575.044189 539.353333,573.045166 
M613.924377,559.490295 
	C613.481018,551.698486 610.182983,547.613037 602.361023,545.206726 
	C599.343323,544.278381 596.149353,543.726379 593.350281,542.359070 
	C591.716553,541.561035 590.704712,539.489746 589.413086,537.991333 
	C590.971191,536.670776 592.332458,534.685364 594.124451,534.154907 
	C599.390320,532.596069 604.660767,535.378174 607.875488,540.809753 
	C608.631592,542.087280 609.368896,543.375977 610.797363,545.833923 
	C610.797363,540.087769 610.797363,535.902039 610.797363,532.927673 
	C608.097229,532.927673 605.899780,533.106567 603.746033,532.877014 
	C601.613037,532.649597 599.543640,531.766296 597.412292,531.594971 
	C589.363770,530.947815 583.084412,535.211487 581.483826,542.214111 
	C579.742737,549.831543 582.810669,555.488464 590.774536,558.680664 
	C594.466187,560.160339 598.486450,560.842529 602.124390,562.423401 
	C603.657837,563.089722 605.733093,565.350647 605.521484,566.516357 
	C605.214417,568.208435 603.335571,570.285461 601.641968,570.936462 
	C595.164368,573.426575 587.905518,569.959961 584.648865,563.270447 
	C583.877319,561.685608 583.167969,560.070435 582.429993,558.469238 
	C582.143677,558.528687 581.857300,558.588135 581.570984,558.647583 
	C581.570984,563.679016 581.570984,568.710449 581.570984,572.254150 
	C584.894714,572.427673 587.768127,572.003296 590.245789,572.803772 
	C602.713379,576.831726 612.461243,571.821472 613.924377,559.490295 
M573.151001,548.509766 
	C573.151001,543.229858 573.151001,537.949951 573.151001,532.955200 
	C565.796692,532.955200 559.074036,532.955200 552.351379,532.955200 
	C552.349487,533.220032 552.347595,533.484863 552.345703,533.749756 
	C553.841125,534.151306 555.336548,534.552917 556.872314,534.965332 
	C556.872314,547.023132 556.872314,558.792969 556.872314,570.515076 
	C555.338623,571.041077 553.989868,571.503540 552.641174,571.966064 
	C552.724548,572.169434 552.807861,572.372742 552.891235,572.576050 
	C561.174316,572.576050 569.457397,572.576050 577.740479,572.576050 
	C577.773315,572.292969 577.806152,572.009827 577.838989,571.726746 
	C576.377441,571.347534 574.915894,570.968384 573.152100,570.510803 
	C573.152100,563.417053 573.152100,556.461853 573.151001,548.509766 
M286.307861,499.502686 
	C286.307861,532.927795 286.307861,566.352966 286.307861,599.778076 
	C286.946381,599.772034 287.584930,599.765991 288.223450,599.759949 
	C288.223450,560.593506 288.223450,521.427002 288.223450,482.260498 
	C287.585022,482.229309 286.946594,482.198151 286.308167,482.166962 
	C286.308167,487.612793 286.308167,493.058655 286.307861,499.502686 
M573.464844,515.430664 
	C572.928040,514.605896 572.530884,513.629883 571.829895,512.983093 
	C569.077759,510.443817 562.924622,510.072357 559.734619,512.237549 
	C556.066223,514.727539 556.201599,518.543091 557.133728,522.059814 
	C558.328491,526.566956 562.216370,527.222046 566.264526,526.994019 
	C571.996277,526.671143 574.331970,523.290222 573.464844,515.430664 
M726.978333,511.404083 
	C719.101074,510.039764 715.238342,511.415070 714.228638,516.317322 
	C713.413818,520.273804 713.841675,524.079529 718.121826,526.088440 
	C722.161682,527.984680 727.899109,526.723328 729.935059,523.630127 
	C732.304810,520.029968 731.329102,514.914246 726.978333,511.404083 
z"/>
<path fill="#46776D" opacity="1.000000" stroke="none" 
	d="
M232.193573,566.877319 
	C226.619156,566.181274 224.250870,563.012146 224.438171,557.952881 
	C224.558243,554.709656 223.292114,553.562012 220.066605,553.604980 
	C209.905960,553.740662 199.741928,553.712219 189.580276,553.624451 
	C186.676147,553.599365 185.210739,554.582947 185.374420,557.649780 
	C185.600220,561.880859 184.247726,565.487183 179.819031,566.547546 
	C175.254471,567.640442 171.267181,566.647461 169.019180,561.730896 
	C168.551712,560.708496 166.809250,559.989563 165.520828,559.671326 
	C160.420761,558.411194 158.122330,555.854980 157.989899,550.656616 
	C157.896591,546.993774 158.008057,543.326294 157.960663,539.661743 
	C157.896683,534.716187 160.570724,532.092468 165.078949,530.742310 
	C166.531021,530.307434 168.463333,529.586548 169.035980,528.431396 
	C171.534073,523.392151 175.859955,523.380188 180.185471,524.286072 
	C184.561691,525.202576 185.437607,528.954712 185.378326,532.860413 
	C185.331955,535.914673 186.855652,536.904480 189.708130,536.885498 
	C199.870071,536.818115 210.033127,536.810059 220.194870,536.890869 
	C223.112656,536.914062 224.465744,535.841064 224.415710,532.815674 
	C224.351868,528.954895 225.040863,525.148926 229.581757,524.288086 
	C233.911423,523.467224 238.249222,523.281128 240.696609,528.426575 
	C241.245026,529.579590 243.191727,530.399231 244.641266,530.729919 
	C249.035599,531.732544 251.264313,534.353149 251.338806,538.782288 
	C251.408844,542.945618 251.484009,547.118652 251.268875,551.272522 
	C251.177963,553.028015 250.772110,555.938721 249.788055,556.287109 
	C243.236282,558.607056 239.814240,565.905640 232.193573,566.877319 
M242.823318,553.846313 
	C245.066406,551.327881 245.765945,540.043762 243.717682,537.839233 
	C243.404663,537.502380 242.500320,537.714905 241.090210,537.958618 
	C240.767532,541.254456 240.151917,544.557312 240.231400,547.843445 
	C240.279526,549.832947 241.404541,551.796326 242.823318,553.846313 
M193.633209,542.968384 
	C192.304794,542.971619 190.888397,542.684082 189.670456,543.052490 
	C188.182510,543.502625 186.861099,544.503174 185.467651,545.265686 
	C186.923645,545.947449 188.369827,547.194336 189.837234,547.219788 
	C199.797440,547.392639 209.763596,547.390991 219.723770,547.215942 
	C221.210709,547.189880 222.676422,545.957703 224.151978,545.283569 
	C222.603363,544.513916 221.071564,543.121216 219.503296,543.078857 
	C211.206573,542.854797 202.900696,542.970398 193.633209,542.968384 
M179.057373,546.486572 
	C179.028229,541.830200 179.093628,537.169617 178.882309,532.521484 
	C178.844498,531.690125 177.661926,530.910767 177.007950,530.107422 
	C176.349152,530.905518 175.131256,531.694275 175.117706,532.503174 
	C174.975784,540.981873 174.973022,549.464783 175.111618,557.943604 
	C175.124710,558.744751 176.360886,559.525940 177.029205,560.316406 
	C177.683273,559.529297 178.847458,558.776184 178.902634,557.949097 
	C179.134750,554.470764 179.035461,550.970276 179.057373,546.486572 
M234.814850,533.972412 
	C234.084122,532.699585 233.353409,531.426697 232.622681,530.153870 
	C231.991898,531.487976 230.847626,532.809937 230.815536,534.158264 
	C230.637390,541.644653 230.631302,549.140015 230.824844,556.625549 
	C230.857407,557.885376 232.152328,559.112549 232.863983,560.354797 
	C233.516418,559.022278 234.697189,557.703857 234.732986,556.354980 
	C234.922836,549.202271 234.825073,542.041931 234.814850,533.972412 
M168.828796,549.012817 
	C168.817825,546.040955 168.973236,543.053894 168.702774,540.105835 
	C168.612061,539.116943 167.436218,538.227722 166.756332,537.292908 
	C166.092148,538.261292 164.931931,539.192078 164.855042,540.205078 
	C164.605804,543.488403 164.571335,546.817383 164.849503,550.095215 
	C164.944977,551.220337 166.204803,552.246582 166.932678,553.317993 
	C167.561401,552.170776 168.190125,551.023560 168.828796,549.012817 
z"/>
<path fill="#E76321" opacity="1.000000" stroke="none" 
	d="
M794.187500,536.213684 
	C800.907043,529.917664 808.208374,530.534363 815.925537,533.434326 
	C815.925537,526.018066 815.925537,518.753540 815.925537,511.312927 
	C814.283569,511.118134 812.843018,510.947266 811.402466,510.776367 
	C811.386597,510.210022 811.370728,509.643646 811.354858,509.077271 
	C818.266663,508.707947 825.207092,508.872253 832.685730,509.017181 
	C832.685730,516.898376 832.682190,524.358032 832.686523,531.817627 
	C832.692871,542.640930 832.787720,553.465149 832.666565,564.286987 
	C832.627686,567.756714 832.251709,571.103943 837.669250,571.813477 
	C829.076233,574.520630 818.193604,573.279968 816.389404,570.084412 
	C813.497009,571.316833 810.750549,573.101990 807.779907,573.632690 
	C800.165894,574.993103 793.497375,571.326599 791.366333,563.869263 
	C788.717468,554.600281 788.173401,545.140320 794.187500,536.213684 
M816.510376,554.415283 
	C816.344666,549.454895 816.592468,544.427612 815.805542,539.567810 
	C815.499451,537.677307 812.859497,536.164673 811.282654,534.479919 
	C809.894165,536.269226 807.416016,537.994202 807.305847,539.859070 
	C806.829102,547.931030 806.832397,556.052979 807.173828,564.135010 
	C807.248840,565.910583 809.421082,567.597412 810.627563,569.325073 
	C812.390564,567.805298 815.041260,566.596680 815.708435,564.692871 
	C816.707886,561.841492 816.313721,558.501709 816.510376,554.415283 
z"/>
<path fill="#E76321" opacity="1.000000" stroke="none" 
	d="
M362.335754,553.849854 
	C359.025909,545.825439 357.288361,544.484802 350.573669,544.797180 
	C350.573669,553.321228 350.573669,561.864502 350.573669,570.678955 
	C363.074646,571.768616 369.866272,564.717468 374.262756,554.002686 
	C374.602448,554.249573 374.942169,554.496460 375.281860,554.743408 
	C375.281860,560.689087 375.281860,566.634705 375.281860,572.573181 
	C359.254456,572.573181 343.754089,572.573181 328.253723,572.573181 
	C328.224335,572.197083 328.194977,571.820923 328.165588,571.444824 
	C329.661896,571.158081 331.158173,570.871338 332.914490,570.534729 
	C332.914490,552.620300 332.914490,534.710815 332.914490,516.579163 
	C331.259216,516.201538 329.742340,515.855530 328.017853,515.462097 
	C330.535492,513.280884 361.915314,512.387695 372.643951,514.078491 
	C372.894897,519.438232 373.151886,524.926636 373.408875,530.415039 
	C373.091156,530.529175 372.773438,530.643311 372.455719,530.757446 
	C369.772369,527.005981 367.481201,522.873047 364.301575,519.604370 
	C360.723969,515.926514 355.773926,515.672485 350.575928,516.285339 
	C350.575928,524.772522 350.575928,532.968323 350.575928,541.309143 
	C358.883087,542.321411 361.012512,536.123596 363.602112,530.507751 
	C364.072388,530.619812 364.542633,530.731873 365.012878,530.843933 
	C365.012878,533.311523 365.013947,535.779053 365.012634,538.246643 
	C365.009857,543.406677 365.056854,548.567932 364.940063,553.725403 
	C364.924835,554.398987 364.065125,555.053467 363.596558,555.716797 
	C363.221924,555.215576 362.847290,554.714294 362.335754,553.849854 
z"/>
<path fill="#E46120" opacity="1.000000" stroke="none" 
	d="
M682.515991,524.021179 
	C682.530090,529.183105 682.723022,533.858093 682.499878,538.513000 
	C682.311340,542.445496 684.406982,543.595642 687.325928,542.135925 
	C690.090759,540.753235 692.436218,538.360229 694.632263,536.088867 
	C695.637573,535.049072 695.842224,533.235107 697.465942,531.956787 
	C697.465942,540.207153 697.465942,548.457458 697.465942,556.707825 
	C694.349426,550.791443 692.122192,544.010254 682.937317,545.559387 
	C682.937317,553.955750 682.937317,562.192627 682.937317,570.548828 
	C686.478638,570.767578 689.670959,570.964783 692.863342,571.161987 
	C692.850342,571.572449 692.837341,571.982971 692.824341,572.393494 
	C682.181335,572.393494 671.538330,572.393494 660.895325,572.393494 
	C660.803223,572.163330 660.711182,571.933105 660.619080,571.702942 
	C661.965210,571.262451 663.311340,570.821899 664.969116,570.279419 
	C664.969116,552.445618 664.969116,534.512512 664.969116,516.343384 
	C663.590393,515.866760 662.156433,515.371033 660.722473,514.875244 
	C660.753479,514.521484 660.784546,514.167725 660.815552,513.813965 
	C675.348206,513.813965 689.880859,513.813965 704.864746,513.813965 
	C705.226013,519.198181 705.610657,524.930908 705.995300,530.663635 
	C705.522644,530.886414 705.049988,531.109192 704.577332,531.332031 
	C703.666870,529.745239 702.666504,528.202759 701.860840,526.564453 
	C697.479736,517.654846 692.669189,514.966736 682.514465,516.300598 
	C682.514465,518.643066 682.514465,521.084290 682.515991,524.021179 
z"/>
<path fill="#E76321" opacity="1.000000" stroke="none" 
	d="
M741.132996,570.860046 
	C741.132996,558.889648 741.132996,546.919312 741.132996,534.609680 
	C739.660645,534.318909 738.297302,534.049622 736.662109,533.726624 
	C737.163513,533.074219 737.435181,532.401611 737.721619,532.395264 
	C743.373901,532.268982 749.038940,532.010925 754.673828,532.305847 
	C756.041443,532.377441 757.310974,534.322449 758.908081,535.638794 
	C762.150696,532.115417 766.918335,530.796387 772.324402,531.553284 
	C779.174011,532.512268 782.737427,536.067322 783.089233,543.078247 
	C783.439392,550.055542 783.292847,557.058289 783.345154,564.049927 
	C783.371216,567.529785 782.376709,571.531372 787.688354,572.599365 
	C779.804565,572.599365 771.920715,572.599365 765.077332,572.599365 
	C765.740173,570.170227 766.844666,567.890869 766.904114,565.584473 
	C767.110168,557.598083 767.098267,549.597351 766.825562,541.613831 
	C766.762085,539.754944 765.341064,537.942505 764.544678,536.108765 
	C762.819946,537.455322 760.390808,538.461670 759.537354,540.228882 
	C758.288086,542.815979 757.782837,545.930542 757.648376,548.851990 
	C757.380737,554.667053 757.397400,560.513000 757.690063,566.326355 
	C757.790894,568.329346 759.062500,570.273438 760.077576,572.989014 
	C754.527954,572.989014 748.229675,572.989014 741.475037,572.673523 
	C741.056763,571.858704 741.094910,571.359375 741.132996,570.860046 
z"/>
<path fill="#E76321" opacity="1.000000" stroke="none" 
	d="
M427.671692,572.945068 
	C418.344391,573.015137 409.403748,573.015137 400.463074,573.015137 
	C400.399384,572.650391 400.335663,572.285645 400.271942,571.920898 
	C401.806305,571.497925 403.340668,571.074890 405.371582,570.515015 
	C402.753326,566.184326 400.210938,561.979065 397.215729,557.024902 
	C394.170258,561.830688 391.460602,566.106689 388.615387,570.596497 
	C390.381317,571.038574 391.714386,571.372253 393.047455,571.705933 
	C393.019135,572.013855 392.990845,572.321838 392.962524,572.629761 
	C388.655853,572.629761 384.349182,572.629761 380.042511,572.629761 
	C389.595612,571.135620 389.849365,561.463074 394.717438,556.014404 
	C395.279663,555.385132 394.675110,553.219299 394.031921,552.098450 
	C391.964874,548.496277 389.675049,545.017517 387.378265,541.552734 
	C385.104370,538.122437 384.082794,533.256165 378.475616,533.028809 
	C387.926025,533.028809 397.376404,533.028809 406.826813,533.028809 
	C406.870789,533.242249 406.914764,533.455688 406.958740,533.669128 
	C406.302673,533.928162 405.660797,534.235474 404.986847,534.433655 
	C404.217010,534.659973 403.418610,534.789185 402.078217,535.081665 
	C404.550385,539.211670 406.825928,543.013184 409.444763,547.388306 
	C412.506409,543.165100 415.273193,539.348633 418.337830,535.121338 
	C416.349976,534.625061 414.884247,534.259094 413.418518,533.893127 
	C413.450653,533.604797 413.482788,533.316406 413.514893,533.028076 
	C417.601349,533.028076 421.687775,533.028076 426.683289,533.028076 
	C418.165497,535.941284 416.268738,543.679321 411.782867,549.073303 
	C411.376923,549.561462 411.975616,551.229919 412.512238,552.101135 
	C416.001007,557.764954 419.427887,563.483154 423.274048,568.900269 
	C424.392670,570.475769 426.814789,571.125305 428.629791,572.215271 
	C428.642639,572.222961 428.545410,572.476135 428.456207,572.575806 
	C428.347626,572.697021 428.193024,572.777100 427.671692,572.945068 
z"/>
<path fill="#E76321" opacity="1.000000" stroke="none" 
	d="
M427.554871,559.390930 
	C427.394775,555.056030 426.629089,550.919434 427.500641,547.162598 
	C430.665985,533.518127 449.065521,526.648987 460.892517,534.492065 
	C465.945374,537.842834 467.605682,543.064880 467.345856,548.808411 
	C467.303528,549.743835 465.006409,551.282959 463.702240,551.336243 
	C457.262177,551.598999 450.805603,551.455872 444.483154,551.455872 
	C442.684814,560.469238 444.543274,567.957275 449.325531,569.866394 
	C458.308502,573.452454 462.513702,567.355347 466.205719,559.985840 
	C467.334259,566.536011 462.656158,571.660706 454.831421,573.493042 
	C441.796204,576.545715 431.164795,571.165649 427.554871,559.390930 
M445.607452,535.206543 
	C444.815338,539.627258 444.023224,544.047974 443.176544,548.773132 
	C446.812805,548.773132 449.201080,548.773132 452.222687,548.773132 
	C451.885223,544.660583 451.796814,540.871765 451.195740,537.166077 
	C450.760864,534.484924 449.128510,532.956421 445.607452,535.206543 
z"/>
<path fill="#E76321" opacity="1.000000" stroke="none" 
	d="
M655.565918,540.624207 
	C656.234924,544.206604 656.755005,547.430847 657.349121,551.114685 
	C648.965942,551.114685 641.331787,551.114685 633.780151,551.114685 
	C632.002136,559.314758 634.215393,567.915161 638.930176,569.761353 
	C648.082703,573.345459 652.090149,566.914551 655.765930,559.582397 
	C656.905151,566.248718 652.603149,571.153564 644.693542,573.227905 
	C632.861938,576.330811 621.065552,571.195862 617.629456,561.447021 
	C613.681152,550.244751 617.806274,538.203613 627.117737,533.750610 
	C637.493469,528.788696 650.391846,531.758362 655.565918,540.624207 
M635.732483,548.982239 
	C637.488953,548.982239 639.245422,548.982239 641.428833,548.982239 
	C641.187073,544.436768 641.182190,540.609070 640.713745,536.838989 
	C640.395203,534.275391 638.631409,532.904602 636.040161,534.219360 
	C633.086304,535.718140 632.335266,546.076416 635.732483,548.982239 
z"/>
<path fill="#E76321" opacity="1.000000" stroke="none" 
	d="
M849.592224,571.456177 
	C840.226440,566.124146 836.811707,556.221436 840.154907,544.903015 
	C842.857422,535.753784 851.356812,530.595520 862.546509,531.313782 
	C874.985779,532.112244 880.581726,538.429260 879.295776,550.801697 
	C871.794922,550.801697 864.216125,550.801697 856.774536,550.801697 
	C854.726746,559.218384 856.708313,567.788940 861.551208,569.587097 
	C870.538818,572.924377 874.904297,567.046143 878.269104,559.412354 
	C879.551086,564.018616 876.955750,568.898621 872.164978,571.289917 
	C864.859314,574.936584 857.387329,574.493774 849.592224,571.456177 
M863.420410,536.366028 
	C862.221191,535.439148 860.834961,533.610962 859.869751,533.811340 
	C858.639099,534.066711 857.068970,535.845276 856.841003,537.172668 
	C856.189270,540.966980 856.142334,544.865112 855.856689,548.734375 
	C859.060547,548.734375 861.332153,548.734375 863.734558,548.734375 
	C863.734558,544.724365 863.734558,540.956665 863.420410,536.366028 
z"/>
<path fill="#E76321" opacity="1.000000" stroke="none" 
	d="
M490.092224,532.763672 
	C490.778534,534.000671 491.074768,535.071533 491.058350,535.012207 
	C495.696289,533.949890 500.153168,532.086426 504.587616,532.138306 
	C509.516724,532.196167 512.040710,537.410095 510.969604,543.130005 
	C510.118164,547.676697 506.470459,550.131165 501.636658,548.775085 
	C499.859161,548.276428 497.763611,546.570251 497.138123,544.914368 
	C496.398621,542.956604 495.396393,539.889221 499.185883,538.869629 
	C499.694305,538.732849 499.870270,537.360474 500.200195,536.560303 
	C499.147186,536.352173 497.402679,535.655457 497.150146,536.012817 
	C495.039276,539.000183 491.855652,542.054382 491.547058,545.328918 
	C490.757233,553.709229 491.283569,562.213562 491.283569,570.742432 
	C493.170074,571.038818 494.896088,571.309998 496.622131,571.581177 
	C496.617310,571.879639 496.612488,572.178040 496.607666,572.476501 
	C487.918304,572.476501 479.228912,572.476501 469.583649,572.476501 
	C471.627014,571.562500 472.963531,570.964661 474.634491,570.217224 
	C474.634491,559.390625 474.756592,548.427612 474.488129,537.474182 
	C474.452454,536.017822 472.433350,534.610168 470.884674,532.597595 
	C476.879852,532.597595 483.290985,532.597595 490.092224,532.763672 
z"/>
<path fill="#E76321" opacity="1.000000" stroke="none" 
	d="
M904.175110,541.874573 
	C903.632935,551.548279 903.209045,560.798218 902.785278,570.045898 
	C905.410889,570.660706 907.182434,571.075562 908.953979,571.490479 
	C908.907349,571.831299 908.860718,572.172180 908.814087,572.513062 
	C900.118225,572.513062 891.422424,572.513062 882.726562,572.513062 
	C882.653137,572.261536 882.579712,572.009949 882.506287,571.758423 
	C883.849426,571.200562 885.192566,570.642700 886.691040,570.020386 
	C886.691040,558.267639 886.691040,546.499939 886.691040,534.630920 
	C885.192383,534.244873 883.850891,533.899353 882.186340,533.470581 
	C888.222473,530.365417 901.969482,531.735352 903.232239,534.038696 
	C908.442078,533.222595 913.169617,531.639954 917.744934,531.998474 
	C922.469482,532.368774 924.746948,538.974792 922.795898,544.182190 
	C921.328125,548.099792 917.024292,549.885010 912.914185,548.281128 
	C908.186218,546.436157 907.512817,541.978821 911.348389,538.531860 
	C911.933289,538.006226 912.026611,536.933594 912.347229,536.113953 
	C911.308167,535.884338 909.744202,535.110657 909.320679,535.519165 
	C907.464661,537.309570 905.938904,539.442322 904.175110,541.874573 
z"/>
<path fill="#E76321" opacity="1.000000" stroke="none" 
	d="
M538.947144,573.147766 
	C529.912292,575.044189 521.805481,574.356689 515.816528,567.064697 
	C510.663971,560.791016 510.450653,548.427795 514.831970,540.988892 
	C520.186096,531.898193 538.096497,528.284973 546.464600,534.607361 
	C549.926025,537.222595 551.478882,542.297546 549.815002,546.270996 
	C548.442505,549.548584 545.689148,551.472534 542.281616,550.632996 
	C539.989075,550.068115 537.327209,548.424377 536.185669,546.471252 
	C534.976685,544.402649 533.883301,541.053345 538.085999,539.585083 
	C538.573486,539.414734 538.090576,536.466797 538.057495,534.806641 
	C536.094849,534.852112 533.099304,534.128113 532.376953,535.097656 
	C530.690613,537.361023 529.432983,540.383118 529.198975,543.197388 
	C528.717896,548.982178 528.770874,554.845764 529.086182,560.650757 
	C529.312012,564.809204 530.002991,569.122803 535.266296,570.269287 
	C539.864075,571.270752 544.555603,568.759521 547.097961,563.913025 
	C547.834534,562.508789 548.590942,561.114929 549.704834,559.940002 
	C549.457397,567.166260 546.524475,570.671021 538.947144,573.147766 
z"/>
<path fill="#E46120" opacity="1.000000" stroke="none" 
	d="
M613.911255,559.915894 
	C612.461243,571.821472 602.713379,576.831726 590.245789,572.803772 
	C587.768127,572.003296 584.894714,572.427673 581.570984,572.254150 
	C581.570984,568.710449 581.570984,563.679016 581.570984,558.647583 
	C581.857300,558.588135 582.143677,558.528687 582.429993,558.469238 
	C583.167969,560.070435 583.877319,561.685608 584.648865,563.270447 
	C587.905518,569.959961 595.164368,573.426575 601.641968,570.936462 
	C603.335571,570.285461 605.214417,568.208435 605.521484,566.516357 
	C605.733093,565.350647 603.657837,563.089722 602.124390,562.423401 
	C598.486450,560.842529 594.466187,560.160339 590.774536,558.680664 
	C582.810669,555.488464 579.742737,549.831543 581.483826,542.214111 
	C583.084412,535.211487 589.363770,530.947815 597.412292,531.594971 
	C599.543640,531.766296 601.613037,532.649597 603.746033,532.877014 
	C605.899780,533.106567 608.097229,532.927673 610.797363,532.927673 
	C610.797363,535.902039 610.797363,540.087769 610.797363,545.833923 
	C609.368896,543.375977 608.631592,542.087280 607.875488,540.809753 
	C604.660767,535.378174 599.390320,532.596069 594.124451,534.154907 
	C592.332458,534.685364 590.971191,536.670776 589.413086,537.991333 
	C590.704712,539.489746 591.716553,541.561035 593.350281,542.359070 
	C596.149353,543.726379 599.343323,544.278381 602.361023,545.206726 
	C610.182983,547.613037 613.481018,551.698486 613.911255,559.915894 
z"/>
<path fill="#E46120" opacity="1.000000" stroke="none" 
	d="
M740.720337,570.902527 
	C741.094910,571.359375 741.056763,571.858704 741.010742,572.608398 
	C740.243286,572.903015 739.483765,572.947327 738.247742,572.850098 
	C737.548523,572.591675 737.311340,572.552124 737.059692,572.589966 
	C728.134338,572.589966 719.208984,572.589966 708.354065,572.589966 
	C716.107849,570.815430 714.269043,565.980286 714.315918,561.959717 
	C714.403259,554.480408 714.263489,546.998535 714.351135,539.519226 
	C714.388306,536.348938 714.538330,533.335510 710.049805,532.766602 
	C716.570740,532.766602 723.091614,532.766602 730.308533,532.766602 
	C730.308533,544.961182 730.308533,557.481506 730.308533,570.945007 
	C734.096863,570.945007 737.202271,570.945007 740.720337,570.902527 
z"/>
<path fill="#E76321" opacity="1.000000" stroke="none" 
	d="
M573.151550,549.008179 
	C573.152100,556.461853 573.152100,563.417053 573.152100,570.510803 
	C574.915894,570.968384 576.377441,571.347534 577.838989,571.726746 
	C577.806152,572.009827 577.773315,572.292969 577.740479,572.576050 
	C569.457397,572.576050 561.174316,572.576050 552.891235,572.576050 
	C552.807861,572.372742 552.724548,572.169434 552.641174,571.966064 
	C553.989868,571.503540 555.338623,571.041077 556.872314,570.515076 
	C556.872314,558.792969 556.872314,547.023132 556.872314,534.965332 
	C555.336548,534.552917 553.841125,534.151306 552.345703,533.749756 
	C552.347595,533.484863 552.349487,533.220032 552.351379,532.955200 
	C559.074036,532.955200 565.796692,532.955200 573.151001,532.955200 
	C573.151001,537.949951 573.151001,543.229858 573.151550,549.008179 
z"/>
<path fill="#9C4316" opacity="1.000000" stroke="none" 
	d="
M286.308014,499.003601 
	C286.308167,493.058655 286.308167,487.612793 286.308167,482.166962 
	C286.946594,482.198151 287.585022,482.229309 288.223450,482.260498 
	C288.223450,521.427002 288.223450,560.593506 288.223450,599.759949 
	C287.584930,599.765991 286.946381,599.772034 286.307861,599.778076 
	C286.307861,566.352966 286.307861,532.927795 286.308014,499.003601 
z"/>
<path fill="#E76321" opacity="1.000000" stroke="none" 
	d="
M573.631592,515.802002 
	C574.331970,523.290222 571.996277,526.671143 566.264526,526.994019 
	C562.216370,527.222046 558.328491,526.566956 557.133728,522.059814 
	C556.201599,518.543091 556.066223,514.727539 559.734619,512.237549 
	C562.924622,510.072357 569.077759,510.443817 571.829895,512.983093 
	C572.530884,513.629883 572.928040,514.605896 573.631592,515.802002 
z"/>
<path fill="#E76321" opacity="1.000000" stroke="none" 
	d="
M727.320496,511.559875 
	C731.329102,514.914246 732.304810,520.029968 729.935059,523.630127 
	C727.899109,526.723328 722.161682,527.984680 718.121826,526.088440 
	C713.841675,524.079529 713.413818,520.273804 714.228638,516.317322 
	C715.238342,511.415070 719.101074,510.039764 727.320496,511.559875 
z"/>
<path fill="#E76321" opacity="1.000000" stroke="none" 
	d="
M737.263550,572.742432 
	C737.311340,572.552124 737.548523,572.591675 737.872742,572.778198 
	C737.805237,572.863464 737.636292,572.879211 737.263550,572.742432 
z"/>
<path fill="none" opacity="1.000000" stroke="none" 
	d="
M194.115601,542.968323 
	C202.900696,542.970398 211.206573,542.854797 219.503296,543.078857 
	C221.071564,543.121216 222.603363,544.513916 224.151978,545.283569 
	C222.676422,545.957703 221.210709,547.189880 219.723770,547.215942 
	C209.763596,547.390991 199.797440,547.392639 189.837234,547.219788 
	C188.369827,547.194336 186.923645,545.947449 185.467651,545.265686 
	C186.861099,544.503174 188.182510,543.502625 189.670456,543.052490 
	C190.888397,542.684082 192.304794,542.971619 194.115601,542.968323 
z"/>
<path fill="none" opacity="1.000000" stroke="none" 
	d="
M179.057419,546.982239 
	C179.035461,550.970276 179.134750,554.470764 178.902634,557.949097 
	C178.847458,558.776184 177.683273,559.529297 177.029205,560.316406 
	C176.360886,559.525940 175.124710,558.744751 175.111618,557.943604 
	C174.973022,549.464783 174.975784,540.981873 175.117706,532.503174 
	C175.131256,531.694275 176.349152,530.905518 177.007935,530.107422 
	C177.661926,530.910767 178.844498,531.690125 178.882309,532.521484 
	C179.093628,537.169617 179.028229,541.830200 179.057419,546.982239 
z"/>
<path fill="none" opacity="1.000000" stroke="none" 
	d="
M234.820908,534.428345 
	C234.825073,542.041931 234.922836,549.202271 234.732986,556.354980 
	C234.697189,557.703857 233.516418,559.022278 232.863983,560.354797 
	C232.152328,559.112549 230.857407,557.885376 230.824844,556.625549 
	C230.631302,549.140015 230.637390,541.644653 230.815536,534.158264 
	C230.847626,532.809937 231.991898,531.487976 232.622681,530.153870 
	C233.353409,531.426697 234.084122,532.699585 234.820908,534.428345 
z"/>
<path fill="none" opacity="1.000000" stroke="none" 
	d="
M168.823822,549.444580 
	C168.190125,551.023560 167.561401,552.170776 166.932678,553.317993 
	C166.204803,552.246582 164.944977,551.220337 164.849503,550.095215 
	C164.571335,546.817383 164.605804,543.488403 164.855042,540.205078 
	C164.931931,539.192078 166.092148,538.261292 166.756348,537.292908 
	C167.436218,538.227722 168.612061,539.116943 168.702774,540.105835 
	C168.973236,543.053894 168.817825,546.040955 168.823822,549.444580 
z"/>
<path fill="none" opacity="1.000000" stroke="none" 
	d="
M241.869476,537.673340 
	C242.500320,537.714905 243.404663,537.502380 243.717682,537.839233 
	C245.765945,540.043762 245.066406,551.327881 242.436020,553.356567 
	C241.988968,547.802368 241.929214,542.737854 241.869476,537.673340 
z"/>
<path fill="none" opacity="1.000000" stroke="none" 
	d="
M241.479828,537.816040 
	C241.929214,542.737854 241.988968,547.802368 242.047211,553.319153 
	C241.404541,551.796326 240.279526,549.832947 240.231400,547.843445 
	C240.151917,544.557312 240.767532,541.254456 241.479828,537.816040 
z"/>
<path fill="none" opacity="1.000000" stroke="none" 
	d="
M816.511292,554.892456 
	C816.313721,558.501709 816.707886,561.841492 815.708435,564.692871 
	C815.041260,566.596680 812.390564,567.805298 810.627563,569.325073 
	C809.421082,567.597412 807.248840,565.910583 807.173828,564.135010 
	C806.832397,556.052979 806.829102,547.931030 807.305847,539.859070 
	C807.416016,537.994202 809.894165,536.269226 811.282654,534.479919 
	C812.859497,536.164673 815.499451,537.677307 815.805542,539.567810 
	C816.592468,544.427612 816.344666,549.454895 816.511292,554.892456 
z"/>
<path fill="none" opacity="1.000000" stroke="none" 
	d="
M445.896484,534.919312 
	C449.128510,532.956421 450.760864,534.484924 451.195740,537.166077 
	C451.796814,540.871765 451.885223,544.660583 452.222687,548.773132 
	C449.201080,548.773132 446.812805,548.773132 443.176544,548.773132 
	C444.023224,544.047974 444.815338,539.627258 445.896484,534.919312 
z"/>
<path fill="none" opacity="1.000000" stroke="none" 
	d="
M635.278625,548.968018 
	C632.335266,546.076416 633.086304,535.718140 636.040161,534.219360 
	C638.631409,532.904602 640.395203,534.275391 640.713745,536.838989 
	C641.182190,540.609070 641.187073,544.436768 641.428833,548.982239 
	C639.245422,548.982239 637.488953,548.982239 635.278625,548.968018 
z"/>
<path fill="none" opacity="1.000000" stroke="none" 
	d="
M863.577515,536.777527 
	C863.734558,540.956665 863.734558,544.724365 863.734558,548.734375 
	C861.332153,548.734375 859.060547,548.734375 855.856689,548.734375 
	C856.142334,544.865112 856.189270,540.966980 856.841003,537.172668 
	C857.068970,535.845276 858.639099,534.066711 859.869751,533.811340 
	C860.834961,533.610962 862.221191,535.439148 863.577515,536.777527 
z"/>
</svg>